<?xml version="1.0" encoding="utf-8"?><!DOCTYPE svg PUBLIC "-//W3C//DTD SVG 1.1//EN" "http://www.w3.org/Graphics/SVG/1.1/DTD/svg11.dtd" [<!ENTITY ns_svg "http://www.w3.org/2000/svg"><!ENTITY ns_xlink "http://www.w3.org/1999/xlink">]><svg  version="1.1" xmlns="&ns_svg;" xmlns:xlink="&ns_xlink;" width="26.442" height="42.577" viewBox="0 0 26.442 42.577" overflow="visible" enable-background="new 0 0 26.442 42.577" xml:space="preserve"><path fill="#EA4335" stroke="#FFFFFF" d="M0.5,13.031c0,9.114,7.443,12.911,10.177,21.342c2.05,6.321,1.199,7.704,2.517,7.704c1.189,0,0.983-2.251,2.799-8.16c2.925-9.512,9.949-12.452,9.949-20.658C25.942,7.49,21.903,0.5,13.107,0.5C4.011,0.5,0.5,7.943,0.5,13.031z"/><path fill="#811411" d="M17.41,13.369c0-2.372-1.923-4.294-4.296-4.294c-2.37,0-4.291,1.923-4.291,4.294 c0,2.37,1.921,4.292,4.291,4.292C15.487,17.661,17.41,15.739,17.41,13.369z"/></svg>